STARTFONT 2.1
FONT -Monotype-Arial Narrow-Bold-R-Normal--14-140-75-75-P-60-iso8859-9
SIZE 14 75 75
FONTBOUNDINGBOX 13 18 -1 -4

STARTPROPERTIES 21
FOUNDRY "Monotype"
FAMILY_NAME "Arial Narrow"
WEIGHT_NAME "Bold"
SLANT "R"
SETWIDTH_NAME "Normal"
ADD_STYLE_NAME ""
PIXEL_SIZE 14
POINT_SIZE 140
RESOLUTION_X 75
RESOLUTION_Y 75
SPACING "P"
AVERAGE_WIDTH 60
CHARSET_REGISTRY "iso8859"
CHARSET_ENCODING "9"
COPYRIGHT "Copyright (c) 1996 Monotype Typography Ltd."
CAP_HEIGHT 12
X_HEIGHT 9
WEIGHT 10
QUAD_WIDTH 7
FONT_DESCENT 4
FONT_ASCENT 14
ENDPROPERTIES

CHARS 191

STARTCHAR space
ENCODING 32
SWIDTH 228 0
DWIDTH 3 0
BBX 0 0 0 0
BITMAP
ENDCHAR

STARTCHAR exclam
ENCODING 33
SWIDTH 273 0
DWIDTH 4 0
BBX 2 11 1 0
BITMAP
C0
C0
C0
C0
C0
C0
C0
C0
00
C0
C0
ENDCHAR

STARTCHAR quotedbl
ENCODING 34
SWIDTH 389 0
DWIDTH 6 0
BBX 5 4 1 7
BITMAP
D8
D8
D8
D8
ENDCHAR

STARTCHAR numbersign
ENCODING 35
SWIDTH 456 0
DWIDTH 7 0
BBX 8 11 0 0
BITMAP
36
36
36
7F
7F
6C
FE
FE
6C
D8
D8
ENDCHAR

STARTCHAR dollar
ENCODING 36
SWIDTH 456 0
DWIDTH 7 0
BBX 5 14 1 -2
BITMAP
20
70
F8
E8
E0
70
38
38
B8
F8
F0
60
20
20
ENDCHAR

STARTCHAR percent
ENCODING 37
SWIDTH 729 0
DWIDTH 11 0
BBX 11 12 0 -1
BITMAP
2300
7300
DB00
DE00
7600
2C00
0C80
19C0
1B60
3360
31C0
3080
ENDCHAR

STARTCHAR ampersand
ENCODING 38
SWIDTH 592 0
DWIDTH 9 0
BBX 8 11 1 0
BITMAP
38
7C
6C
38
38
7A
CF
C6
C6
7F
39
ENDCHAR

STARTCHAR quoteright
ENCODING 39
SWIDTH 228 0
DWIDTH 3 0
BBX 2 5 1 6
BITMAP
C0
C0
40
40
80
ENDCHAR

STARTCHAR parenleft
ENCODING 40
SWIDTH 273 0
DWIDTH 4 0
BBX 3 15 1 -4
BITMAP
60
60
C0
C0
C0
C0
C0
C0
C0
C0
C0
C0
C0
60
60
ENDCHAR

STARTCHAR parenright
ENCODING 41
SWIDTH 273 0
DWIDTH 4 0
BBX 3 15 1 -4
BITMAP
C0
C0
60
60
60
60
60
60
60
60
60
60
60
C0
C0
ENDCHAR

STARTCHAR asterisk
ENCODING 42
SWIDTH 319 0
DWIDTH 5 0
BBX 5 5 0 6
BITMAP
A8
F8
70
70
D8
ENDCHAR

STARTCHAR plus
ENCODING 43
SWIDTH 479 0
DWIDTH 7 0
BBX 6 8 1 2
BITMAP
30
30
30
FC
FC
30
30
30
ENDCHAR

STARTCHAR comma
ENCODING 44
SWIDTH 228 0
DWIDTH 3 0
BBX 2 5 1 -3
BITMAP
C0
C0
40
40
80
ENDCHAR

STARTCHAR minus
ENCODING 45
SWIDTH 479 0
DWIDTH 7 0
BBX 6 2 1 5
BITMAP
FC
FC
ENDCHAR

STARTCHAR period
ENCODING 46
SWIDTH 228 0
DWIDTH 3 0
BBX 2 2 1 0
BITMAP
C0
C0
ENDCHAR

STARTCHAR slash
ENCODING 47
SWIDTH 228 0
DWIDTH 3 0
BBX 4 12 0 -1
BITMAP
30
30
30
30
60
60
60
60
C0
C0
C0
C0
ENDCHAR

STARTCHAR zero
ENCODING 48
SWIDTH 456 0
DWIDTH 7 0
BBX 6 11 1 0
BITMAP
30
78
CC
CC
CC
CC
CC
CC
CC
78
30
ENDCHAR

STARTCHAR one
ENCODING 49
SWIDTH 456 0
DWIDTH 7 0
BBX 5 11 1 0
BITMAP
18
38
78
D8
18
18
18
18
18
18
18
ENDCHAR

STARTCHAR two
ENCODING 50
SWIDTH 456 0
DWIDTH 7 0
BBX 6 11 1 0
BITMAP
78
FC
CC
CC
0C
18
38
70
60
FC
FC
ENDCHAR

STARTCHAR three
ENCODING 51
SWIDTH 456 0
DWIDTH 7 0
BBX 6 11 1 0
BITMAP
78
FC
CC
CC
18
18
0C
0C
CC
FC
78
ENDCHAR

STARTCHAR four
ENCODING 52
SWIDTH 456 0
DWIDTH 7 0
BBX 6 11 1 0
BITMAP
18
38
38
78
58
D8
98
FC
FC
18
18
ENDCHAR

STARTCHAR five
ENCODING 53
SWIDTH 456 0
DWIDTH 7 0
BBX 6 11 1 0
BITMAP
7C
7C
C0
D8
FC
CC
0C
0C
CC
FC
78
ENDCHAR

STARTCHAR six
ENCODING 54
SWIDTH 456 0
DWIDTH 7 0
BBX 6 11 1 0
BITMAP
78
FC
CC
C0
F8
FC
CC
CC
CC
FC
78
ENDCHAR

STARTCHAR seven
ENCODING 55
SWIDTH 456 0
DWIDTH 7 0
BBX 5 11 1 0
BITMAP
F8
F8
18
18
30
30
30
60
60
60
60
ENDCHAR

STARTCHAR eight
ENCODING 56
SWIDTH 456 0
DWIDTH 7 0
BBX 6 11 1 0
BITMAP
78
FC
CC
CC
78
78
CC
CC
CC
FC
78
ENDCHAR

STARTCHAR nine
ENCODING 57
SWIDTH 456 0
DWIDTH 7 0
BBX 6 11 1 0
BITMAP
78
FC
CC
CC
CC
FC
7C
0C
CC
FC
78
ENDCHAR

STARTCHAR colon
ENCODING 58
SWIDTH 273 0
DWIDTH 4 0
BBX 2 8 1 0
BITMAP
C0
C0
00
00
00
00
C0
C0
ENDCHAR

STARTCHAR semicolon
ENCODING 59
SWIDTH 273 0
DWIDTH 4 0
BBX 2 11 1 -3
BITMAP
C0
C0
00
00
00
00
C0
C0
40
C0
80
ENDCHAR

STARTCHAR less
ENCODING 60
SWIDTH 479 0
DWIDTH 7 0
BBX 6 8 1 1
BITMAP
0C
3C
F0
C0
E0
78
1C
04
ENDCHAR

STARTCHAR equal
ENCODING 61
SWIDTH 479 0
DWIDTH 7 0
BBX 6 5 1 3
BITMAP
FC
FC
00
FC
FC
ENDCHAR

STARTCHAR greater
ENCODING 62
SWIDTH 479 0
DWIDTH 7 0
BBX 6 8 1 1
BITMAP
80
E0
78
1C
3C
F0
C0
80
ENDCHAR

STARTCHAR question
ENCODING 63
SWIDTH 501 0
DWIDTH 8 0
BBX 6 11 1 0
BITMAP
30
F8
CC
8C
0C
18
30
30
00
30
30
ENDCHAR

STARTCHAR at
ENCODING 64
SWIDTH 800 0
DWIDTH 12 0
BBX 11 14 1 -3
BITMAP
1F80
30C0
6060
C7A0
8FA0
9B20
B320
B320
B360
BFC0
DD80
6060
30C0
1F80
ENDCHAR

STARTCHAR A
ENCODING 65
SWIDTH 592 0
DWIDTH 9 0
BBX 9 11 0 0
BITMAP
0800
1C00
1C00
3600
3600
2200
7F00
7F00
6300
C180
C180
ENDCHAR

STARTCHAR B
ENCODING 66
SWIDTH 592 0
DWIDTH 9 0
BBX 7 11 1 0
BITMAP
FC
FE
C6
C6
FC
FE
C6
C6
C6
FE
FC
ENDCHAR

STARTCHAR C
ENCODING 67
SWIDTH 592 0
DWIDTH 9 0
BBX 8 11 1 0
BITMAP
3C
7E
66
C3
C0
C0
C0
C3
66
7E
3C
ENDCHAR

STARTCHAR D
ENCODING 68
SWIDTH 592 0
DWIDTH 9 0
BBX 7 11 1 0
BITMAP
F8
FC
CC
C6
C6
C6
C6
C6
CC
FC
F8
ENDCHAR

STARTCHAR E
ENCODING 69
SWIDTH 547 0
DWIDTH 7 0
BBX 6 11 1 0
BITMAP
FC
FC
C0
C0
F8
F8
C0
C0
C0
FC
FC
ENDCHAR

STARTCHAR F
ENCODING 70
SWIDTH 501 0
DWIDTH 7 0
BBX 6 11 1 0
BITMAP
FC
FC
C0
C0
FC
FC
C0
C0
C0
C0
C0
ENDCHAR

STARTCHAR G
ENCODING 71
SWIDTH 638 0
DWIDTH 10 0
BBX 8 11 1 0
BITMAP
3C
7E
67
C3
C0
CF
CF
C3
63
7F
3C
ENDCHAR

STARTCHAR H
ENCODING 72
SWIDTH 592 0
DWIDTH 9 0
BBX 7 11 1 0
BITMAP
C6
C6
C6
C6
FE
FE
C6
C6
C6
C6
C6
ENDCHAR

STARTCHAR I
ENCODING 73
SWIDTH 228 0
DWIDTH 4 0
BBX 2 11 1 0
BITMAP
C0
C0
C0
C0
C0
C0
C0
C0
C0
C0
C0
ENDCHAR

STARTCHAR J
ENCODING 74
SWIDTH 456 0
DWIDTH 7 0
BBX 6 11 0 0
BITMAP
0C
0C
0C
0C
0C
0C
0C
CC
CC
FC
78
ENDCHAR

STARTCHAR K
ENCODING 75
SWIDTH 592 0
DWIDTH 9 0
BBX 8 11 1 0
BITMAP
C3
C6
CC
D8
D8
F8
EC
CC
C6
C6
C3
ENDCHAR

STARTCHAR L
ENCODING 76
SWIDTH 501 0
DWIDTH 8 0
BBX 6 11 1 0
BITMAP
C0
C0
C0
C0
C0
C0
C0
C0
C0
FC
FC
ENDCHAR

STARTCHAR M
ENCODING 77
SWIDTH 683 0
DWIDTH 11 0
BBX 9 11 1 0
BITMAP
E380
E380
E380
F780
F780
D780
D580
DD80
DD80
DD80
C980
ENDCHAR

STARTCHAR N
ENCODING 78
SWIDTH 592 0
DWIDTH 9 0
BBX 7 11 1 0
BITMAP
C6
C6
E6
E6
F6
D6
DE
CE
CE
C6
C6
ENDCHAR

STARTCHAR O
ENCODING 79
SWIDTH 638 0
DWIDTH 10 0
BBX 8 11 1 0
BITMAP
3C
7E
66
C3
C3
C3
C3
C3
66
7E
3C
ENDCHAR

STARTCHAR P
ENCODING 80
SWIDTH 547 0
DWIDTH 8 0
BBX 6 11 1 0
BITMAP
F8
FC
CC
CC
CC
FC
F8
C0
C0
C0
C0
ENDCHAR

STARTCHAR Q
ENCODING 81
SWIDTH 638 0
DWIDTH 10 0
BBX 8 12 1 -1
BITMAP
3C
7E
66
C3
C3
C3
C3
CB
6E
7E
3F
03
ENDCHAR

STARTCHAR R
ENCODING 82
SWIDTH 592 0
DWIDTH 9 0
BBX 8 11 1 0
BITMAP
FC
FE
C6
C6
FC
F8
CC
CC
C6
C6
C3
ENDCHAR

STARTCHAR S
ENCODING 83
SWIDTH 547 0
DWIDTH 8 0
BBX 6 11 1 0
BITMAP
78
FC
CC
C0
F0
78
1C
0C
CC
FC
78
ENDCHAR

STARTCHAR T
ENCODING 84
SWIDTH 501 0
DWIDTH 8 0
BBX 8 11 0 0
BITMAP
FF
FF
18
18
18
18
18
18
18
18
18
ENDCHAR

STARTCHAR U
ENCODING 85
SWIDTH 592 0
DWIDTH 9 0
BBX 7 11 1 0
BITMAP
C6
C6
C6
C6
C6
C6
C6
C6
C6
7C
38
ENDCHAR

STARTCHAR V
ENCODING 86
SWIDTH 547 0
DWIDTH 8 0
BBX 8 11 0 0
BITMAP
C3
C3
C3
66
66
66
24
3C
3C
18
18
ENDCHAR

STARTCHAR W
ENCODING 87
SWIDTH 774 0
DWIDTH 12 0
BBX 12 11 0 0
BITMAP
C630
C630
C630
6F60
6960
6960
6960
79C0
39C0
30C0
30C0
ENDCHAR

STARTCHAR X
ENCODING 88
SWIDTH 547 0
DWIDTH 8 0
BBX 8 11 0 0
BITMAP
C3
66
66
3C
38
18
1C
3C
66
66
C3
ENDCHAR

STARTCHAR Y
ENCODING 89
SWIDTH 547 0
DWIDTH 8 0
BBX 8 11 0 0
BITMAP
C3
66
66
24
3C
3C
18
18
18
18
18
ENDCHAR

STARTCHAR Z
ENCODING 90
SWIDTH 501 0
DWIDTH 8 0
BBX 6 11 1 0
BITMAP
FC
FC
0C
18
18
30
30
60
C0
FC
FC
ENDCHAR

STARTCHAR bracketleft
ENCODING 91
SWIDTH 273 0
DWIDTH 4 0
BBX 3 14 1 -3
BITMAP
E0
E0
C0
C0
C0
C0
C0
C0
C0
C0
C0
C0
E0
E0
ENDCHAR

STARTCHAR backslash
ENCODING 92
SWIDTH 228 0
DWIDTH 3 0
BBX 4 12 0 -1
BITMAP
C0
C0
C0
C0
60
60
60
60
30
30
30
30
ENDCHAR

STARTCHAR bracketright
ENCODING 93
SWIDTH 273 0
DWIDTH 4 0
BBX 3 14 1 -3
BITMAP
E0
E0
60
60
60
60
60
60
60
60
60
60
E0
E0
ENDCHAR

STARTCHAR asciicircum
ENCODING 94
SWIDTH 479 0
DWIDTH 7 0
BBX 6 6 1 5
BITMAP
20
70
70
D8
D8
CC
ENDCHAR

STARTCHAR underscore
ENCODING 95
SWIDTH 456 0
DWIDTH 7 0
BBX 7 2 0 -3
BITMAP
FE
FE
ENDCHAR

STARTCHAR quoteleft
ENCODING 96
SWIDTH 228 0
DWIDTH 3 0
BBX 2 5 1 6
BITMAP
40
80
80
C0
C0
ENDCHAR

STARTCHAR a
ENCODING 97
SWIDTH 456 0
DWIDTH 7 0
BBX 6 8 1 0
BITMAP
78
CC
0C
7C
CC
CC
CC
74
ENDCHAR

STARTCHAR b
ENCODING 98
SWIDTH 501 0
DWIDTH 8 0
BBX 7 11 1 0
BITMAP
C0
C0
C0
D8
EC
C6
C6
C6
C6
EC
D8
ENDCHAR

STARTCHAR c
ENCODING 99
SWIDTH 456 0
DWIDTH 7 0
BBX 6 8 1 0
BITMAP
38
6C
C4
C0
C0
C4
6C
38
ENDCHAR

STARTCHAR d
ENCODING 100
SWIDTH 501 0
DWIDTH 8 0
BBX 7 11 1 0
BITMAP
06
06
06
36
6E
C6
C6
C6
C6
6E
36
ENDCHAR

STARTCHAR e
ENCODING 101
SWIDTH 456 0
DWIDTH 7 0
BBX 6 8 1 0
BITMAP
38
6C
CC
FC
C0
C4
6C
38
ENDCHAR

STARTCHAR f
ENCODING 102
SWIDTH 273 0
DWIDTH 4 0
BBX 5 11 0 0
BITMAP
38
70
60
F0
60
60
60
60
60
60
60
ENDCHAR

STARTCHAR g
ENCODING 103
SWIDTH 501 0
DWIDTH 8 0
BBX 7 11 1 -3
BITMAP
36
6E
C6
C6
C6
C6
6E
36
86
CC
78
ENDCHAR

STARTCHAR h
ENCODING 104
SWIDTH 501 0
DWIDTH 7 0
BBX 6 11 1 0
BITMAP
C0
C0
C0
D8
EC
CC
CC
CC
CC
CC
CC
ENDCHAR

STARTCHAR i
ENCODING 105
SWIDTH 228 0
DWIDTH 3 0
BBX 2 11 1 0
BITMAP
C0
C0
00
C0
C0
C0
C0
C0
C0
C0
C0
ENDCHAR

STARTCHAR j
ENCODING 106
SWIDTH 228 0
DWIDTH 3 0
BBX 3 14 0 -3
BITMAP
60
60
00
60
60
60
60
60
60
60
60
60
E0
C0
ENDCHAR

STARTCHAR k
ENCODING 107
SWIDTH 456 0
DWIDTH 7 0
BBX 6 11 1 0
BITMAP
C0
C0
C0
CC
D8
F0
F0
F8
D8
CC
CC
ENDCHAR

STARTCHAR l
ENCODING 108
SWIDTH 228 0
DWIDTH 3 0
BBX 2 11 1 0
BITMAP
C0
C0
C0
C0
C0
C0
C0
C0
C0
C0
C0
ENDCHAR

STARTCHAR m
ENCODING 109
SWIDTH 729 0
DWIDTH 11 0
BBX 10 8 1 0
BITMAP
DD80
EEC0
CCC0
CCC0
CCC0
CCC0
CCC0
CCC0
ENDCHAR

STARTCHAR n
ENCODING 110
SWIDTH 501 0
DWIDTH 7 0
BBX 6 8 1 0
BITMAP
D8
EC
CC
CC
CC
CC
CC
CC
ENDCHAR

STARTCHAR o
ENCODING 111
SWIDTH 501 0
DWIDTH 8 0
BBX 7 8 1 0
BITMAP
38
6C
C6
C6
C6
C6
6C
38
ENDCHAR

STARTCHAR p
ENCODING 112
SWIDTH 501 0
DWIDTH 8 0
BBX 7 11 1 -3
BITMAP
D8
EC
C6
C6
C6
C6
EC
D8
C0
C0
C0
ENDCHAR

STARTCHAR q
ENCODING 113
SWIDTH 501 0
DWIDTH 8 0
BBX 7 11 1 -3
BITMAP
36
6E
C6
C6
C6
C6
6E
36
06
06
06
ENDCHAR

STARTCHAR r
ENCODING 114
SWIDTH 319 0
DWIDTH 5 0
BBX 5 8 1 0
BITMAP
D8
F0
E0
C0
C0
C0
C0
C0
ENDCHAR

STARTCHAR s
ENCODING 115
SWIDTH 456 0
DWIDTH 7 0
BBX 6 8 1 0
BITMAP
78
CC
E4
70
38
9C
CC
78
ENDCHAR

STARTCHAR t
ENCODING 116
SWIDTH 273 0
DWIDTH 4 0
BBX 4 11 0 0
BITMAP
60
60
60
F0
60
60
60
60
60
60
30
ENDCHAR

STARTCHAR u
ENCODING 117
SWIDTH 501 0
DWIDTH 7 0
BBX 6 8 1 0
BITMAP
CC
CC
CC
CC
CC
CC
DC
6C
ENDCHAR

STARTCHAR v
ENCODING 118
SWIDTH 456 0
DWIDTH 8 0
BBX 7 8 1 0
BITMAP
C6
C6
6C
6C
6C
38
38
10
ENDCHAR

STARTCHAR w
ENCODING 119
SWIDTH 638 0
DWIDTH 11 0
BBX 10 8 1 0
BITMAP
CCC0
CCC0
6D80
6D80
7F80
3300
3300
3300
ENDCHAR

STARTCHAR x
ENCODING 120
SWIDTH 456 0
DWIDTH 6 0
BBX 7 8 0 0
BITMAP
C6
6C
38
38
38
6C
6C
C6
ENDCHAR

STARTCHAR y
ENCODING 121
SWIDTH 456 0
DWIDTH 7 0
BBX 7 11 0 -3
BITMAP
C6
C6
6C
6C
6C
38
30
30
60
60
C0
ENDCHAR

STARTCHAR z
ENCODING 122
SWIDTH 410 0
DWIDTH 6 0
BBX 5 8 1 0
BITMAP
F8
18
30
30
60
60
C0
F8
ENDCHAR

STARTCHAR braceleft
ENCODING 123
SWIDTH 319 0
DWIDTH 5 0
BBX 4 14 1 -3
BITMAP
30
70
60
60
60
60
C0
C0
60
60
60
60
70
30
ENDCHAR

STARTCHAR bar
ENCODING 124
SWIDTH 230 0
DWIDTH 3 0
BBX 2 14 1 -3
BITMAP
C0
C0
C0
C0
C0
C0
C0
C0
C0
C0
C0
C0
C0
C0
ENDCHAR

STARTCHAR braceright
ENCODING 125
SWIDTH 319 0
DWIDTH 5 0
BBX 4 14 1 -3
BITMAP
C0
E0
60
60
60
60
30
30
60
60
60
60
E0
C0
ENDCHAR

STARTCHAR asciitilde
ENCODING 126
SWIDTH 479 0
DWIDTH 7 0
BBX 7 3 0 4
BITMAP
72
FE
8C
ENDCHAR

STARTCHAR space
ENCODING 160
SWIDTH 228 0
DWIDTH 3 0
BBX 0 0 0 0
BITMAP
ENDCHAR

STARTCHAR exclamdown
ENCODING 161
SWIDTH 273 0
DWIDTH 4 0
BBX 2 11 1 -3
BITMAP
C0
C0
00
C0
C0
C0
C0
C0
C0
C0
C0
ENDCHAR

STARTCHAR cent
ENCODING 162
SWIDTH 456 0
DWIDTH 7 0
BBX 6 14 0 -3
BITMAP
08
08
08
38
7C
EC
D0
D0
EC
7C
38
20
40
40
ENDCHAR

STARTCHAR sterling
ENCODING 163
SWIDTH 456 0
DWIDTH 7 0
BBX 7 11 0 0
BITMAP
30
78
CC
CC
60
F0
F0
60
60
FE
DE
ENDCHAR

STARTCHAR currency
ENCODING 164
SWIDTH 456 0
DWIDTH 7 0
BBX 7 7 0 2
BITMAP
44
FE
6C
44
6C
FE
44
ENDCHAR

STARTCHAR yen
ENCODING 165
SWIDTH 456 0
DWIDTH 7 0
BBX 6 11 1 0
BITMAP
CC
CC
CC
78
30
FC
30
FC
30
30
30
ENDCHAR

STARTCHAR brokenbar
ENCODING 166
SWIDTH 230 0
DWIDTH 3 0
BBX 2 15 1 -4
BITMAP
C0
C0
C0
C0
C0
C0
00
00
00
C0
C0
C0
C0
C0
C0
ENDCHAR

STARTCHAR section
ENCODING 167
SWIDTH 456 0
DWIDTH 7 0
BBX 6 14 1 -3
BITMAP
38
7C
6C
60
78
DC
CC
EC
7C
38
0C
CC
FC
78
ENDCHAR

STARTCHAR dieresis
ENCODING 168
SWIDTH 273 0
DWIDTH 4 0
BBX 5 2 0 9
BITMAP
D8
D8
ENDCHAR

STARTCHAR copyright
ENCODING 169
SWIDTH 604 0
DWIDTH 9 0
BBX 9 11 0 0
BITMAP
3E00
6300
C180
9C80
B480
A080
A080
B480
DD80
6300
3E00
ENDCHAR

STARTCHAR ordfeminine
ENCODING 170
SWIDTH 303 0
DWIDTH 5 0
BBX 4 5 1 6
BITMAP
E0
30
F0
F0
B0
ENDCHAR

STARTCHAR guillemotleft
ENCODING 171
SWIDTH 456 0
DWIDTH 7 0
BBX 7 7 0 0
BITMAP
36
6C
6C
D8
6C
6C
36
ENDCHAR

STARTCHAR logicalnot
ENCODING 172
SWIDTH 479 0
DWIDTH 7 0
BBX 6 5 1 3
BITMAP
FC
FC
0C
0C
0C
ENDCHAR

STARTCHAR hyphen
ENCODING 173
SWIDTH 273 0
DWIDTH 4 0
BBX 4 2 0 8
BITMAP
F0
F0
ENDCHAR

STARTCHAR registered
ENCODING 174
SWIDTH 604 0
DWIDTH 9 0
BBX 9 11 0 0
BITMAP
3E00
6300
C180
B880
AC80
B880
A880
AC80
C180
6300
3E00
ENDCHAR

STARTCHAR macron
ENCODING 175
SWIDTH 273 0
DWIDTH 4 0
BBX 4 2 0 9
BITMAP
F0
F0
ENDCHAR

STARTCHAR degree
ENCODING 176
SWIDTH 328 0
DWIDTH 5 0
BBX 5 4 0 7
BITMAP
70
D8
D8
70
ENDCHAR

STARTCHAR plusminus
ENCODING 177
SWIDTH 479 0
DWIDTH 7 0
BBX 6 9 1 1
BITMAP
30
30
FC
FC
30
30
00
FC
FC
ENDCHAR

STARTCHAR twosuperior
ENCODING 178
SWIDTH 273 0
DWIDTH 4 0
BBX 4 6 0 5
BITMAP
60
F0
B0
60
F0
F0
ENDCHAR

STARTCHAR threesuperior
ENCODING 179
SWIDTH 273 0
DWIDTH 4 0
BBX 3 6 1 5
BITMAP
E0
60
C0
60
E0
C0
ENDCHAR

STARTCHAR acute
ENCODING 180
SWIDTH 273 0
DWIDTH 4 0
BBX 3 2 1 9
BITMAP
60
C0
ENDCHAR

STARTCHAR mu
ENCODING 181
SWIDTH 501 0
DWIDTH 8 0
BBX 6 11 1 -3
BITMAP
CC
CC
CC
CC
CC
CC
FC
F4
C0
C0
C0
ENDCHAR

STARTCHAR paragraph
ENCODING 182
SWIDTH 456 0
DWIDTH 7 0
BBX 7 14 0 -3
BITMAP
7E
FE
F4
F4
F4
74
14
14
14
14
14
14
14
14
ENDCHAR

STARTCHAR periodcentered
ENCODING 183
SWIDTH 228 0
DWIDTH 3 0
BBX 2 2 1 4
BITMAP
C0
C0
ENDCHAR

STARTCHAR cedilla
ENCODING 184
SWIDTH 273 0
DWIDTH 4 0
BBX 4 3 0 -3
BITMAP
E0
70
E0
ENDCHAR

STARTCHAR onesuperior
ENCODING 185
SWIDTH 273 0
DWIDTH 4 0
BBX 3 6 1 5
BITMAP
60
E0
60
60
60
60
ENDCHAR

STARTCHAR ordmasculine
ENCODING 186
SWIDTH 299 0
DWIDTH 4 0
BBX 4 5 0 6
BITMAP
60
F0
D0
F0
60
ENDCHAR

STARTCHAR guillemotright
ENCODING 187
SWIDTH 456 0
DWIDTH 7 0
BBX 7 7 0 0
BITMAP
D8
6C
6C
36
6C
6C
D8
ENDCHAR

STARTCHAR onequarter
ENCODING 188
SWIDTH 684 0
DWIDTH 10 0
BBX 10 11 0 0
BITMAP
6300
E300
6600
6600
6C00
6CC0
19C0
1AC0
33C0
33C0
60C0
ENDCHAR

STARTCHAR onehalf
ENCODING 189
SWIDTH 684 0
DWIDTH 10 0
BBX 10 11 0 0
BITMAP
6300
E300
6600
6600
6C00
6D80
1BC0
1AC0
3180
33C0
63C0
ENDCHAR

STARTCHAR threequarters
ENCODING 190
SWIDTH 684 0
DWIDTH 10 0
BBX 10 11 0 0
BITMAP
E300
6300
C600
6600
EC00
CCC0
19C0
1AC0
33C0
33C0
60C0
ENDCHAR

STARTCHAR questiondown
ENCODING 191
SWIDTH 501 0
DWIDTH 8 0
BBX 6 11 1 -3
BITMAP
30
30
00
30
30
60
C0
C4
CC
7C
30
ENDCHAR

STARTCHAR Agrave
ENCODING 192
SWIDTH 592 0
DWIDTH 9 0
BBX 9 14 0 0
BITMAP
1800
0C00
0000
0800
1C00
1C00
3600
3600
2200
7F00
7F00
6300
C180
C180
ENDCHAR

STARTCHAR Aacute
ENCODING 193
SWIDTH 592 0
DWIDTH 9 0
BBX 9 14 0 0
BITMAP
0C00
1800
0000
0800
1C00
1C00
3600
3600
2200
7F00
7F00
6300
C180
C180
ENDCHAR

STARTCHAR Acircumflex
ENCODING 194
SWIDTH 592 0
DWIDTH 9 0
BBX 9 14 0 0
BITMAP
1C00
3600
0000
0800
1C00
1C00
3600
3600
2200
7F00
7F00
6300
C180
C180
ENDCHAR

STARTCHAR Atilde
ENCODING 195
SWIDTH 592 0
DWIDTH 9 0
BBX 9 14 0 0
BITMAP
1A00
2C00
0000
0800
1C00
1C00
3600
3600
2200
7F00
7F00
6300
C180
C180
ENDCHAR

STARTCHAR Adieresis
ENCODING 196
SWIDTH 592 0
DWIDTH 9 0
BBX 9 14 0 0
BITMAP
3600
3600
0000
0800
1C00
1C00
3600
3600
2200
7F00
7F00
6300
C180
C180
ENDCHAR

STARTCHAR Aring
ENCODING 197
SWIDTH 592 0
DWIDTH 9 0
BBX 9 14 0 0
BITMAP
1C00
2200
2200
1C00
1C00
1C00
3600
3600
2200
7F00
7F00
6300
C180
C180
ENDCHAR

STARTCHAR AE
ENCODING 198
SWIDTH 820 0
DWIDTH 12 0
BBX 11 11 1 0
BITMAP
0FE0
1FE0
1E00
3600
37C0
37C0
7E00
7E00
6600
C7E0
C7E0
ENDCHAR

STARTCHAR Ccedilla
ENCODING 199
SWIDTH 592 0
DWIDTH 9 0
BBX 8 14 1 -3
BITMAP
3C
7E
66
C3
C0
C0
C0
C3
66
7E
3C
18
0C
38
ENDCHAR

STARTCHAR Egrave
ENCODING 200
SWIDTH 547 0
DWIDTH 7 0
BBX 6 14 1 0
BITMAP
30
18
00
FC
FC
C0
C0
F8
F8
C0
C0
C0
FC
FC
ENDCHAR

STARTCHAR Eacute
ENCODING 201
SWIDTH 547 0
DWIDTH 7 0
BBX 6 14 1 0
BITMAP
0C
18
00
FC
FC
C0
C0
F8
F8
C0
C0
C0
FC
FC
ENDCHAR

STARTCHAR Ecircumflex
ENCODING 202
SWIDTH 547 0
DWIDTH 7 0
BBX 6 14 1 0
BITMAP
38
6C
00
FC
FC
C0
C0
F8
F8
C0
C0
C0
FC
FC
ENDCHAR

STARTCHAR Edieresis
ENCODING 203
SWIDTH 547 0
DWIDTH 7 0
BBX 6 14 1 0
BITMAP
6C
6C
00
FC
FC
C0
C0
F8
F8
C0
C0
C0
FC
FC
ENDCHAR

STARTCHAR Igrave
ENCODING 204
SWIDTH 228 0
DWIDTH 4 0
BBX 3 14 0 0
BITMAP
C0
60
00
60
60
60
60
60
60
60
60
60
60
60
ENDCHAR

STARTCHAR Iacute
ENCODING 205
SWIDTH 228 0
DWIDTH 4 0
BBX 3 14 1 0
BITMAP
60
C0
00
C0
C0
C0
C0
C0
C0
C0
C0
C0
C0
C0
ENDCHAR

STARTCHAR Icircumflex
ENCODING 206
SWIDTH 228 0
DWIDTH 4 0
BBX 5 14 -1 0
BITMAP
70
D8
00
30
30
30
30
30
30
30
30
30
30
30
ENDCHAR

STARTCHAR Idieresis
ENCODING 207
SWIDTH 228 0
DWIDTH 4 0
BBX 5 14 0 0
BITMAP
D8
D8
00
60
60
60
60
60
60
60
60
60
60
60
ENDCHAR

STARTCHAR Gbreve
ENCODING 208
SWIDTH 641 0
DWIDTH 10 0
BBX 8 14 1 0
BITMAP
66
3C
00
3C
7E
67
C3
C0
CF
CF
C3
63
7F
3C
ENDCHAR

STARTCHAR Ntilde
ENCODING 209
SWIDTH 592 0
DWIDTH 9 0
BBX 7 14 1 0
BITMAP
34
58
00
C6
C6
E6
E6
F6
D6
DE
CE
CE
C6
C6
ENDCHAR

STARTCHAR Ograve
ENCODING 210
SWIDTH 638 0
DWIDTH 10 0
BBX 8 14 1 0
BITMAP
30
18
00
3C
7E
66
C3
C3
C3
C3
C3
66
7E
3C
ENDCHAR

STARTCHAR Oacute
ENCODING 211
SWIDTH 638 0
DWIDTH 10 0
BBX 8 14 1 0
BITMAP
0C
18
00
3C
7E
66
C3
C3
C3
C3
C3
66
7E
3C
ENDCHAR

STARTCHAR Ocircumflex
ENCODING 212
SWIDTH 638 0
DWIDTH 10 0
BBX 8 14 1 0
BITMAP
1C
36
00
3C
7E
66
C3
C3
C3
C3
C3
66
7E
3C
ENDCHAR

STARTCHAR Otilde
ENCODING 213
SWIDTH 638 0
DWIDTH 10 0
BBX 8 14 1 0
BITMAP
1A
2C
00
3C
7E
66
C3
C3
C3
C3
C3
66
7E
3C
ENDCHAR

STARTCHAR Odieresis
ENCODING 214
SWIDTH 638 0
DWIDTH 10 0
BBX 8 14 1 0
BITMAP
66
66
00
3C
7E
66
C3
C3
C3
C3
C3
66
7E
3C
ENDCHAR

STARTCHAR multiply
ENCODING 215
SWIDTH 479 0
DWIDTH 7 0
BBX 6 7 1 2
BITMAP
CC
CC
78
30
78
CC
CC
ENDCHAR

STARTCHAR Oslash
ENCODING 216
SWIDTH 638 0
DWIDTH 10 0
BBX 8 11 1 0
BITMAP
3D
7E
66
CB
CB
D3
D3
D3
66
7E
BC
ENDCHAR

STARTCHAR Ugrave
ENCODING 217
SWIDTH 592 0
DWIDTH 9 0
BBX 7 14 1 0
BITMAP
30
18
00
C6
C6
C6
C6
C6
C6
C6
C6
C6
7C
38
ENDCHAR

STARTCHAR Uacute
ENCODING 218
SWIDTH 592 0
DWIDTH 9 0
BBX 7 14 1 0
BITMAP
0C
18
00
C6
C6
C6
C6
C6
C6
C6
C6
C6
7C
38
ENDCHAR

STARTCHAR Ucircumflex
ENCODING 219
SWIDTH 592 0
DWIDTH 9 0
BBX 7 14 1 0
BITMAP
38
6C
00
C6
C6
C6
C6
C6
C6
C6
C6
C6
7C
38
ENDCHAR

STARTCHAR Udieresis
ENCODING 220
SWIDTH 592 0
DWIDTH 9 0
BBX 7 14 1 0
BITMAP
6C
6C
00
C6
C6
C6
C6
C6
C6
C6
C6
C6
7C
38
ENDCHAR

STARTCHAR Idotaccent
ENCODING 221
SWIDTH 228 0
DWIDTH 4 0
BBX 2 14 1 0
BITMAP
C0
C0
00
C0
C0
C0
C0
C0
C0
C0
C0
C0
C0
C0
ENDCHAR

STARTCHAR Scedilla
ENCODING 222
SWIDTH 547 0
DWIDTH 8 0
BBX 6 14 1 -3
BITMAP
78
FC
CC
C0
F0
78
1C
0C
CC
FC
78
30
18
70
ENDCHAR

STARTCHAR germandbls
ENCODING 223
SWIDTH 501 0
DWIDTH 8 0
BBX 7 11 1 0
BITMAP
70
D8
CC
CC
D8
D8
CC
C6
C6
C6
DC
ENDCHAR

STARTCHAR agrave
ENCODING 224
SWIDTH 456 0
DWIDTH 7 0
BBX 6 11 1 0
BITMAP
60
30
00
78
CC
0C
7C
CC
CC
CC
74
ENDCHAR

STARTCHAR aacute
ENCODING 225
SWIDTH 456 0
DWIDTH 7 0
BBX 6 11 1 0
BITMAP
18
30
00
78
CC
0C
7C
CC
CC
CC
74
ENDCHAR

STARTCHAR acircumflex
ENCODING 226
SWIDTH 456 0
DWIDTH 7 0
BBX 6 11 1 0
BITMAP
70
D8
00
78
CC
0C
7C
CC
CC
CC
74
ENDCHAR

STARTCHAR atilde
ENCODING 227
SWIDTH 456 0
DWIDTH 7 0
BBX 6 11 1 0
BITMAP
68
B0
00
78
CC
0C
7C
CC
CC
CC
74
ENDCHAR

STARTCHAR adieresis
ENCODING 228
SWIDTH 456 0
DWIDTH 7 0
BBX 6 11 1 0
BITMAP
6C
6C
00
78
CC
0C
7C
CC
CC
CC
74
ENDCHAR

STARTCHAR aring
ENCODING 229
SWIDTH 456 0
DWIDTH 7 0
BBX 6 12 1 0
BITMAP
38
44
38
00
78
CC
0C
7C
CC
CC
CC
74
ENDCHAR

STARTCHAR ae
ENCODING 230
SWIDTH 729 0
DWIDTH 11 0
BBX 10 8 1 0
BITMAP
7B80
CEC0
0CC0
7FC0
CC00
CC40
CEC0
7380
ENDCHAR

STARTCHAR ccedilla
ENCODING 231
SWIDTH 456 0
DWIDTH 7 0
BBX 6 11 1 -3
BITMAP
38
6C
C4
C0
C0
C4
6C
38
30
18
70
ENDCHAR

STARTCHAR egrave
ENCODING 232
SWIDTH 456 0
DWIDTH 7 0
BBX 6 11 1 0
BITMAP
60
30
00
38
6C
CC
FC
C0
C4
6C
38
ENDCHAR

STARTCHAR eacute
ENCODING 233
SWIDTH 456 0
DWIDTH 7 0
BBX 6 11 1 0
BITMAP
18
30
00
38
6C
CC
FC
C0
C4
6C
38
ENDCHAR

STARTCHAR ecircumflex
ENCODING 234
SWIDTH 456 0
DWIDTH 7 0
BBX 6 11 1 0
BITMAP
70
D8
00
38
6C
CC
FC
C0
C4
6C
38
ENDCHAR

STARTCHAR edieresis
ENCODING 235
SWIDTH 456 0
DWIDTH 7 0
BBX 6 11 1 0
BITMAP
6C
6C
00
38
6C
CC
FC
C0
C4
6C
38
ENDCHAR

STARTCHAR igrave
ENCODING 236
SWIDTH 228 0
DWIDTH 3 0
BBX 3 11 0 0
BITMAP
C0
60
00
60
60
60
60
60
60
60
60
ENDCHAR

STARTCHAR iacute
ENCODING 237
SWIDTH 228 0
DWIDTH 3 0
BBX 3 11 1 0
BITMAP
60
C0
00
C0
C0
C0
C0
C0
C0
C0
C0
ENDCHAR

STARTCHAR icircumflex
ENCODING 238
SWIDTH 228 0
DWIDTH 3 0
BBX 5 11 -1 0
BITMAP
70
D8
00
30
30
30
30
30
30
30
30
ENDCHAR

STARTCHAR idieresis
ENCODING 239
SWIDTH 228 0
DWIDTH 3 0
BBX 5 11 0 0
BITMAP
D8
D8
00
60
60
60
60
60
60
60
60
ENDCHAR

STARTCHAR gbreve
ENCODING 240
SWIDTH 501 0
DWIDTH 8 0
BBX 7 14 1 -3
BITMAP
66
3C
00
36
6E
C6
C6
C6
C6
6E
36
86
CC
78
ENDCHAR

STARTCHAR ntilde
ENCODING 241
SWIDTH 501 0
DWIDTH 7 0
BBX 6 11 1 0
BITMAP
34
58
00
D8
EC
CC
CC
CC
CC
CC
CC
ENDCHAR

STARTCHAR ograve
ENCODING 242
SWIDTH 501 0
DWIDTH 8 0
BBX 7 11 1 0
BITMAP
30
18
00
38
6C
C6
C6
C6
C6
6C
38
ENDCHAR

STARTCHAR oacute
ENCODING 243
SWIDTH 501 0
DWIDTH 8 0
BBX 7 11 1 0
BITMAP
0C
18
00
38
6C
C6
C6
C6
C6
6C
38
ENDCHAR

STARTCHAR ocircumflex
ENCODING 244
SWIDTH 501 0
DWIDTH 8 0
BBX 7 11 1 0
BITMAP
38
6C
00
38
6C
C6
C6
C6
C6
6C
38
ENDCHAR

STARTCHAR otilde
ENCODING 245
SWIDTH 501 0
DWIDTH 8 0
BBX 7 11 1 0
BITMAP
34
58
00
38
6C
C6
C6
C6
C6
6C
38
ENDCHAR

STARTCHAR odieresis
ENCODING 246
SWIDTH 501 0
DWIDTH 8 0
BBX 7 11 1 0
BITMAP
6C
6C
00
38
6C
C6
C6
C6
C6
6C
38
ENDCHAR

STARTCHAR divide
ENCODING 247
SWIDTH 479 0
DWIDTH 7 0
BBX 6 8 1 2
BITMAP
30
30
00
FC
FC
00
30
30
ENDCHAR

STARTCHAR oslash
ENCODING 248
SWIDTH 501 0
DWIDTH 8 0
BBX 7 8 1 0
BITMAP
3A
6C
CE
D6
D6
E6
6C
B8
ENDCHAR

STARTCHAR ugrave
ENCODING 249
SWIDTH 501 0
DWIDTH 8 0
BBX 6 11 1 0
BITMAP
60
30
00
CC
CC
CC
CC
CC
CC
DC
6C
ENDCHAR

STARTCHAR uacute
ENCODING 250
SWIDTH 501 0
DWIDTH 8 0
BBX 6 11 1 0
BITMAP
18
30
00
CC
CC
CC
CC
CC
CC
DC
6C
ENDCHAR

STARTCHAR ucircumflex
ENCODING 251
SWIDTH 501 0
DWIDTH 8 0
BBX 6 11 1 0
BITMAP
70
D8
00
CC
CC
CC
CC
CC
CC
DC
6C
ENDCHAR

STARTCHAR udieresis
ENCODING 252
SWIDTH 501 0
DWIDTH 8 0
BBX 6 11 1 0
BITMAP
6C
6C
00
CC
CC
CC
CC
CC
CC
DC
6C
ENDCHAR

STARTCHAR dotlessi
ENCODING 253
SWIDTH 228 0
DWIDTH 3 0
BBX 2 8 1 0
BITMAP
C0
C0
C0
C0
C0
C0
C0
C0
ENDCHAR

STARTCHAR scedilla
ENCODING 254
SWIDTH 456 0
DWIDTH 7 0
BBX 6 11 1 -3
BITMAP
78
CC
E4
70
38
9C
CC
78
30
18
70
ENDCHAR

STARTCHAR ydieresis
ENCODING 255
SWIDTH 456 0
DWIDTH 7 0
BBX 7 14 0 -3
BITMAP
36
36
00
C6
C6
6C
6C
6C
38
30
30
60
60
C0
ENDCHAR
ENDFONT
